<?xml version="1.0" encoding="utf-8"?>
<!-- Generator: Adobe Illustrator 23.0.5, SVG Export Plug-In . SVG Version: 6.00 Build 0)  -->
<svg version="1.1" id="Capa_1" xmlns="http://www.w3.org/2000/svg" xmlns:xlink="http://www.w3.org/1999/xlink" x="0px" y="0px"
	 viewBox="0 0 500 150" style="enable-background:new 0 0 500 150;" xml:space="preserve">
<style type="text/css">
	.st0{fill:#765CF3;}
	.st1{fill:#3BCDBD;}
	.st2{fill:#4AE5C7;}
</style>
<g>
	<polyline class="st0" points="273.2,124.6 270.2,124.6 273.3,117.4 279,130.8 282.2,130.8 274.8,114.4 271.8,114.4 264.4,130.8 
		267.6,130.8 269.2,127 274.3,127 	"/>
	<polyline class="st0" points="362.8,124.6 359.8,124.6 362.8,117.4 368.6,130.8 371.8,130.8 364.4,114.4 361.4,114.4 354,130.8 
		357.1,130.8 358.7,127 363.8,127 	"/>
	<g>
		<path class="st1" d="M491.4,45.8c-0.3-1.1-0.8-2.6-0.5-3.7c2-7.6,0.1-14.1-4-19.2c-0.1-0.1-0.3-0.2-0.5-0.1
			c-4.4,1.9-8.1,4.5-12.1,5c-5.9,0.8-12,0.3-18,0c-0.6,0-1.3-0.1-1.9-0.1h0c-4.9-0.3-9.8-1.1-14.7-1.1c-5.1,0-10.1,1.3-14.5,6.3
			c-0.7,0.8-1.6,1.8-2.7,1.3c-2.6-1.3-4.8-3.3-7.7-5.4c-0.3-0.2-0.7,0-0.6,0.4c0.4,3.2,0.8,6.1,1.3,9.5c0,0.3-0.2,0.5-0.5,0.5
			c-1.3-0.2-2.9-0.5-4-0.7c-0.4-0.1-0.6,0.4-0.3,0.7c1.3,1,3.2,2.5,4.6,3.5c0.2,0.1,0.2,0.3,0.1,0.5c-4,6.9-2.9,14.3-1,21.6
			c0.2,0.6,0.3,1.3,0.6,1.9c0.1,0.1,0.1,0.2,0,0.3c-0.4,1.2-0.4,2.6-0.4,4.2c0,12.5,1.1,23.4,14.6,29.5c5.1,2.6,16.9,4.8,26.4,4.8
			c9.6,0,16.7-1.3,23.9-4.9c11.9-5.6,13.7-15.4,14.6-26.8c0,0,0.1-0.7,0.1-2.7c0-2-0.1-2.3-0.3-3.7c0,0,0-0.1,0-0.1
			C494.3,59.2,492.8,51.7,491.4,45.8 M422.5,69.8c1.9-2.4,5.5-3.6,10.9-3.6c0.7,0,1.4,0,2.1,0.1l0.4,0c0.3,0,0.5,0.1,0.8,0.1
			c1.1,0.1,2,0.3,3,0.5c3.9,0.8,6.5,1,7.1,5c0.8,5-3.6,11.8-8.6,13.5c-1.8,0.6-3.6,0.9-5.4,0.9c-5.6,0-10-3-11.2-7.6
			C420.6,74.8,420.9,71.8,422.5,69.8 M455.2,100.8L455.2,100.8c-0.3,0-0.6,0-0.8,0c0,0,0,0,0,0c-11.2-0.2-23.9-3.4-30.2-10.2
			c0.4-0.7,0,0,0.4-0.7c13.6,4.6,23.7-0.7,28-14.6c0.3-1,0.8-1.8,1.6-2.8c0.1-0.1,0.1-0.1,0.2-0.2c0.1-0.1,0.2-0.2,0.3-0.3
			c0.1,0.1,0.2,0.3,0.2,0.4c0.7,1,1.3,2,1.6,3c3.4,12.3,8.6,17.1,18.6,17.1h0c2.3,0,4.9-0.3,7.9-0.8c0.4-0.1,0.6,0.4,0.3,0.7
			C477.4,97.7,467.1,100.8,455.2,100.8 M487.6,76.1c-0.3,6.1-2.3,9.3-6.6,10.5c-7.3,2.1-12.3,0.9-15.1-3.4c-2.4-3.6-4.2-9.2-3-12.3
			c1-2.5,4.5-3.7,10.8-3.7c6.2,0.2,10.2,1.3,12.2,3.5C487.2,71.9,487.8,73.7,487.6,76.1 M480.1,61.4c-0.8,0-3.3,0.3-3.8,0.3
			c-3.2,0.3-4.1,0.3-6.5,0.7c-3.2,0.4-6.2,1.3-10.5,1.5l-1.4,0.1c-1.4,0.1-2.3,0.2-3.7,0h0c-0.3,0-0.7-0.1-1.1-0.1
			c-1.6-0.2-2.9-0.4-4.5-0.7c-2.1-0.5-3.8-1-9.2-1.5c-3.4-0.3-5.7-0.4-8.3-0.5l-3.4-0.2c-0.7,0-1.9-0.1-2.7-0.1
			c-0.7,0-1.3,0.1-1.9,0.1c3.4-5,7.6-10.2,16.8-8.3c12.2,2.5,18.1,2.9,22.4,2.8c10.7-0.3,18.2-2.8,23.5-7.6c0.2-0.2,0.6-0.1,0.7,0.2
			c0.6,2.9,0.6,10,1.1,12.6c0,0.3-0.1,0.5-0.4,0.5C486.5,61.1,484.6,61.1,480.1,61.4"/>
		<path class="st2" d="M476.4,27.3c-0.3,4.1-3.1,25.3-24.1,27.6c0,0,0,0,0,0c4.5,0.6,7.6,0.7,10.1,0.6c10.7-0.3,18.2-2.8,23.5-7.6
			c0,0,0.1-0.1,0.1-0.1c0.6-0.4,3.2-2.2,4.9-5.8c2-7.6,0.1-14.1-4-19.2c-0.1-0.1-0.3-0.2-0.5-0.1C482.8,24.3,479.6,26.3,476.4,27.3z
			"/>
	</g>
	<path class="st1" d="M257.7,94.6c-1.6,1.2-3.6,2.1-6,2.7c-2.4,0.6-4.9,0.9-7.5,0.9c-6.8,0-12-1.7-15.7-5.2
		c-3.7-3.5-5.5-8.5-5.5-15.2V54.5h-8.8v-3.9c0-4.8,3.9-8.8,8.8-8.8l0,0v0c0-7.6,6.2-13.8,13.8-13.8h2.6v13.8h14.2v0
		c0,7-5.7,12.7-12.7,12.7h-1.5v23.2c0,2.4,0.6,4.2,1.8,5.5s3,2,5.2,2c0,0,0.1,0,0.1,0c4.3,0,8.2,2.2,9.8,6.2L257.7,94.6z"/>
	<path class="st1" d="M126.1,46c4.7,4.2,7.1,10.5,7.1,19v17c0,8.5-6.9,15.4-15.4,15.4h0v-7.1c-3.1,5.3-8.9,7.9-17.3,7.9
		c-4.4,0-8.2-0.7-11.4-2.2c-3.2-1.5-5.7-3.5-7.3-6.1c-1.7-2.6-2.5-5.6-2.5-8.9c0-5.3,2-9.4,6-12.5c4-3,10.1-4.5,18.4-4.5h13.1
		c0-3.6-1.1-6.4-3.3-8.3c-2.2-1.9-5.5-2.9-9.8-2.9c-3,0-6,0.5-8.9,1.4c0,0-0.1,0-0.1,0c-4.5,1.5-9.5-0.3-11.7-4.5l-1.6-3.1
		c3.1-2.2,6.8-3.9,11.1-5.1c4.3-1.2,8.8-1.8,13.4-1.8C114.6,39.7,121.4,41.8,126.1,46z M112,85.2c2.2-1.3,3.7-3.2,4.7-5.8v-5.8
		h-11.3c-6.8,0-10.1,2.2-10.1,6.7c0,2.1,0.8,3.8,2.5,5c1.7,1.2,3.9,1.8,6.8,1.8C107.4,87.1,109.9,86.5,112,85.2z"/>
	<path class="st1" d="M320.6,73.6h-43c0.8,3.5,2.6,6.3,5.5,8.3c2.9,2,6.5,3.1,10.8,3.1c3,0,5.6-0.4,7.9-1.3c0,0,0,0,0.1,0
		c4.4-1.7,9.3-0.9,12.5,2.6l2.6,2.8c-5.4,6.1-13.2,9.2-23.5,9.2c-6.4,0-12.1-1.2-17-3.8c-4.9-2.5-8.7-6-11.4-10.4
		c-2.7-4.4-4-9.5-4-15.1c0-5.6,1.3-10.6,4-15.1c2.6-4.5,6.3-8,10.9-10.5c4.6-2.5,9.8-3.8,15.5-3.8c5.6,0,10.6,1.2,15.1,3.6
		c4.5,2.4,8,5.8,10.6,10.3c2.6,4.5,3.9,9.7,3.9,15.6C320.9,69.4,320.8,70.9,320.6,73.6z M282,55.3c-2.5,2.1-4.1,5-4.6,8.7h28
		c-0.6-3.6-2.1-6.5-4.6-8.6c-2.5-2.1-5.6-3.2-9.3-3.2C287.7,52.2,284.5,53.2,282,55.3z"/>
	<path class="st1" d="M387.3,73.6h-43c0.8,3.5,2.6,6.3,5.5,8.3c2.9,2,6.5,3.1,10.8,3.1c3,0,5.6-0.4,7.9-1.3c0,0,0,0,0.1,0
		c4.4-1.7,9.3-0.9,12.5,2.6l2.6,2.8c-5.4,6.1-13.2,9.2-23.5,9.2c-6.4,0-12.1-1.2-17-3.8c-4.9-2.5-8.7-6-11.4-10.4
		c-2.7-4.4-4-9.5-4-15.1c0-5.6,1.3-10.6,4-15.1c2.6-4.5,6.3-8,10.9-10.5c4.6-2.5,9.8-3.8,15.5-3.8c5.6,0,10.6,1.2,15.1,3.6
		c4.5,2.4,8,5.8,10.6,10.3c2.6,4.5,3.9,9.7,3.9,15.6C387.6,69.4,387.5,70.9,387.3,73.6z M348.7,55.3c-2.5,2.1-4.1,5-4.6,8.7h28
		c-0.6-3.6-2.1-6.5-4.6-8.6c-2.5-2.1-5.6-3.2-9.3-3.2C354.4,52.2,351.2,53.2,348.7,55.3z"/>
	<path class="st0" d="M200.6,122.4h2.9v6.5c-0.8,0.7-1.8,1.2-3,1.5c-1.1,0.4-2.3,0.5-3.5,0.5c-1.7,0-3.2-0.4-4.5-1.1
		c-1.3-0.7-2.4-1.7-3.2-3c-0.8-1.3-1.1-2.7-1.1-4.3s0.4-3.1,1.1-4.3c0.8-1.3,1.8-2.3,3.2-3c1.4-0.7,2.9-1.1,4.6-1.1
		c1.4,0,2.6,0.2,3.8,0.7c1.1,0.5,2.1,1.1,2.8,2l-1.9,1.9c-1.3-1.2-2.8-1.9-4.5-1.9c-1.2,0-2.2,0.2-3.1,0.7c-0.9,0.5-1.6,1.2-2.1,2
		c-0.5,0.9-0.8,1.9-0.8,3c0,1.1,0.3,2.1,0.8,3c0.5,0.9,1.2,1.6,2.1,2.1c0.9,0.5,1.9,0.7,3.1,0.7c1.3,0,2.4-0.3,3.4-0.8V122.4z"/>
	<path class="st0" d="M219.8,128.2v2.6h-12.3v-16.4h12v2.6h-8.9v4.3h7.9v2.5h-7.9v4.5H219.8z"/>
	<path class="st0" d="M245.3,129.9c-1.3-0.7-2.4-1.7-3.1-3c-0.8-1.3-1.1-2.7-1.1-4.3s0.4-3.1,1.1-4.3c0.8-1.3,1.8-2.3,3.2-3
		c1.3-0.7,2.8-1.1,4.5-1.1c1.3,0,2.6,0.2,3.7,0.7s2,1.1,2.8,2l-2,1.9c-1.2-1.3-2.6-1.9-4.4-1.9c-1.1,0-2.1,0.2-3,0.7
		c-0.9,0.5-1.6,1.2-2.1,2.1c-0.5,0.9-0.8,1.9-0.8,3s0.3,2.1,0.8,3c0.5,0.9,1.2,1.6,2.1,2.1c0.9,0.5,1.9,0.7,3,0.7
		c1.7,0,3.2-0.6,4.4-1.9l2,1.9c-0.8,0.9-1.7,1.6-2.8,2c-1.1,0.5-2.3,0.7-3.7,0.7C248.1,131,246.6,130.7,245.3,129.9z"/>
	<path class="st0" d="M259.2,114.4h3v16.4h-3V114.4z"/>
	<path class="st0" d="M290.7,114.4h7.2c1.8,0,3.3,0.3,4.7,1c1.4,0.7,2.4,1.6,3.2,2.9c0.8,1.2,1.1,2.7,1.1,4.3c0,1.6-0.4,3.1-1.1,4.3
		c-0.7,1.2-1.8,2.2-3.2,2.9c-1.4,0.7-2.9,1-4.7,1h-7.2V114.4z M297.7,128.2c1.2,0,2.3-0.2,3.2-0.7c0.9-0.5,1.6-1.1,2.1-2
		c0.5-0.9,0.7-1.8,0.7-3c0-1.1-0.2-2.1-0.7-3c-0.5-0.9-1.2-1.5-2.1-2c-0.9-0.5-2-0.7-3.2-0.7h-4v11.3H297.7z"/>
	<path class="st0" d="M310.1,114.4h3v16.4h-3V114.4z"/>
	<path class="st0" d="M328.8,122.4h2.9v6.5c-0.8,0.7-1.8,1.2-3,1.5c-1.1,0.4-2.3,0.5-3.5,0.5c-1.7,0-3.2-0.4-4.5-1.1
		c-1.3-0.7-2.4-1.7-3.2-3c-0.8-1.3-1.1-2.7-1.1-4.3s0.4-3.1,1.1-4.3c0.8-1.3,1.8-2.3,3.2-3c1.4-0.7,2.9-1.1,4.6-1.1
		c1.4,0,2.6,0.2,3.8,0.7c1.1,0.5,2.1,1.1,2.8,2l-1.9,1.9c-1.3-1.2-2.8-1.9-4.5-1.9c-1.2,0-2.2,0.2-3.1,0.7c-0.9,0.5-1.6,1.2-2.1,2
		c-0.5,0.9-0.8,1.9-0.8,3c0,1.1,0.3,2.1,0.8,3c0.5,0.9,1.2,1.6,2.1,2.1c0.9,0.5,1.9,0.7,3.1,0.7c1.3,0,2.4-0.3,3.4-0.8V122.4z"/>
	<path class="st0" d="M335.7,114.4h3v16.4h-3V114.4z"/>
	<path class="st0" d="M346.5,117H341v-2.6H355v2.6h-5.4v13.8h-3V117z"/>
	<path class="st0" d="M374,114.4h3v13.8h8.6v2.6H374V114.4z"/>
	<g>
		<polygon class="st0" points="237.7,124.7 237.7,114.4 234.7,114.4 234.7,120.9 		"/>
		<polygon class="st0" points="233.3,123.8 225.7,114.4 223.2,114.4 223.2,130.8 226.2,130.8 226.2,119.7 235.2,130.8 237.7,130.8 
			237.7,129.4 		"/>
	</g>
	<path class="st0" d="M50.5,62.7c0.6,1.9,1,3.9,1,6.2c0,4.8-1.4,8.6-4.1,11.5c-2.8,2.9-6.2,4.3-10.4,4.3c-2.6,0-4.8-0.6-6.9-1.7
		L19,94.2c0.2,0.1,0.4,0.3,0.6,0.4c4.3,2.4,9.2,3.6,14.5,3.6c7.8,0,13.7-2.5,17.8-7.4v6.6c8.7,0,15.7-7,15.7-15.7V45.6L50.5,62.7z"
		/>
	<path class="st0" d="M206.3,53c-1.9-3.4-4.4-6.2-7.4-8.4l0,0l0.1,0.1l-11.2,11.2c0.5,0.4,0.9,0.7,1.3,1.2c2.7,2.9,4.1,6.7,4.1,11.5
		c0,4.8-1.4,8.6-4.1,11.5c-2.7,2.9-6.2,4.3-10.5,4.3c-4.2,0-7.6-1.4-10.4-4.3c-0.8-0.8-1.4-1.7-1.9-2.7l-18.3,18.3v22.8
		c9.1,0,16.5-7.4,16.5-16.5V90.8c4.1,4.6,9.8,6.9,17,6.9c5.4,0,10.2-1.2,14.5-3.6c4.3-2.4,7.7-5.8,10.2-10.3
		c2.5-4.4,3.7-9.6,3.7-15.4C210,62.6,208.8,57.4,206.3,53z"/>
	<path class="st1" d="M27.7,81.4c-0.4-0.3-0.8-0.6-1.1-1c-2.7-2.9-4.1-6.7-4.1-11.5c0-4.8,1.4-8.6,4.1-11.5
		c2.7-2.9,6.2-4.3,10.5-4.3c4.2,0,7.6,1.4,10.4,4.3c0.7,0.7,1.3,1.6,1.8,2.4l18.5-18.5V19c-9.1,0-16.5,7.4-16.5,16.5v11.1
		c-4.1-4.6-9.8-6.9-17-6.9c-5.4,0-10.2,1.2-14.5,3.6c-4.3,2.4-7.7,5.8-10.2,10.3C6.9,58,5.7,63.1,5.7,69c0,5.9,1.2,11,3.7,15.4
		c1.8,3.3,4.2,6,7.1,8.2L27.7,81.4z"/>
	<path class="st1" d="M165.2,74.4c-0.6-1.8-0.9-3.8-0.9-6c0-4.8,1.4-8.6,4.1-11.5c2.8-2.9,6.2-4.3,10.4-4.3c2.5,0,4.7,0.5,6.6,1.5
		L196.5,43c-0.1-0.1-0.3-0.2-0.4-0.3c-4.3-2.4-9.2-3.6-14.5-3.6c-7.8,0-13.7,2.5-17.8,7.4V40c-8.7,0-15.7,7-15.7,15.7v35.7
		L165.2,74.4z"/>
	<path class="st0" d="M179.5,127"/>
	<polyline class="st0" points="178.5,124.6 175.5,124.6 178.6,117.4 184.3,130.8 187.5,130.8 180.1,114.4 177.1,114.4 169.7,130.8 
		172.8,130.8 174.5,127 179.5,127 	"/>
</g>
</svg>
